<?xml version="1.0" standalone="no"?>
<!DOCTYPE svg PUBLIC "-//W3C//DTD SVG 20010904//EN"
 "http://www.w3.org/TR/2001/REC-SVG-20010904/DTD/svg10.dtd">
<svg version="1.0" xmlns="http://www.w3.org/2000/svg"
 width="537.000000pt" height="537.000000pt" viewBox="0 0 537.000000 537.000000"
 preserveAspectRatio="xMidYMid meet">
<metadata>
Created by potrace 1.14, written by Peter Selinger 2001-2017
</metadata>
<g transform="translate(0.000000,537.000000) scale(0.100000,-0.100000)"
fill="#000000" stroke="none">
<path d="M2577 5184 c-1 -2 -40 -5 -87 -8 -47 -3 -98 -8 -115 -12 -16 -3 -48
-7 -70 -9 -22 -2 -42 -5 -45 -6 -3 -1 -9 -3 -15 -4 -5 -2 -13 -4 -17 -5 -5 -1
-16 -3 -25 -5 -10 -1 -36 -5 -58 -10 -56 -13 -55 -12 -57 -15 -3 -2 -23 -7
-60 -15 -15 -3 -40 -10 -55 -16 -16 -6 -39 -13 -52 -15 -14 -3 -29 -8 -35 -12
-6 -4 -13 -7 -16 -8 -3 0 -14 -4 -25 -8 -11 -5 -38 -15 -60 -23 -22 -8 -51
-20 -65 -26 -14 -5 -31 -11 -39 -13 -8 -1 -18 -9 -22 -16 -5 -7 -9 -10 -9 -6
0 8 -212 -100 -220 -112 -3 -4 -15 -10 -27 -14 -13 -4 -23 -11 -23 -15 0 -4
-18 -16 -40 -26 -22 -10 -40 -21 -40 -25 0 -4 -14 -13 -30 -20 -17 -7 -30 -17
-30 -22 0 -5 -8 -12 -17 -15 -10 -4 -23 -12 -29 -17 -6 -6 -27 -24 -47 -39
-83 -65 -128 -106 -237 -217 -63 -64 -122 -125 -130 -136 -8 -11 -26 -33 -40
-50 -25 -30 -32 -40 -103 -137 -20 -29 -42 -58 -47 -64 -6 -7 -7 -13 -3 -13 4
0 0 -7 -10 -14 -10 -8 -19 -18 -19 -23 -1 -4 -12 -26 -26 -48 -31 -48 -144
-276 -162 -325 -7 -19 -18 -48 -25 -65 -39 -89 -109 -354 -129 -490 -4 -27
-10 -61 -12 -75 -22 -129 -22 -584 1 -653 2 -6 6 -30 9 -52 34 -243 120 -514
239 -750 34 -66 73 -139 89 -162 15 -23 28 -46 28 -51 0 -6 3 -12 8 -14 4 -1
31 -39 61 -83 30 -43 58 -84 63 -90 39 -47 52 -64 71 -88 45 -59 235 -245 327
-320 52 -43 105 -86 117 -97 13 -10 23 -16 23 -14 0 3 7 -1 15 -10 51 -51 359
-218 505 -275 47 -18 94 -37 105 -41 40 -17 211 -67 260 -76 11 -2 34 -7 50
-11 17 -4 32 -7 35 -8 3 -1 30 -5 60 -10 30 -4 62 -9 70 -11 169 -28 580 -25
750 5 30 6 71 13 90 16 76 12 301 75 375 105 11 5 47 19 80 31 33 13 80 34
104 46 24 13 47 23 51 23 9 0 213 111 220 120 3 3 32 23 65 43 127 79 250 180
395 326 137 138 190 196 190 209 0 4 9 14 20 22 11 8 20 20 20 26 0 7 3 14 8
16 8 3 82 105 82 113 0 2 13 23 29 47 42 62 80 129 92 161 6 15 15 27 20 27 5
0 8 3 7 8 -1 4 10 33 25 64 15 31 27 62 27 67 0 6 4 11 10 11 5 0 12 16 16 35
3 19 9 35 13 35 4 0 8 7 9 15 1 8 3 22 4 30 1 8 4 15 7 15 7 0 36 91 33 103
-1 4 3 7 10 7 6 0 9 3 6 6 -3 3 4 39 17 80 13 41 23 76 23 77 0 2 15 77 18 90
1 4 2 8 4 10 2 2 3 12 14 97 4 30 9 67 12 82 16 100 22 444 10 553 -3 28 -8
70 -11 95 -3 25 -8 70 -11 100 -3 30 -9 60 -12 65 -4 6 -7 21 -8 35 0 14 -6
41 -12 60 -6 19 -13 46 -16 60 -2 14 -13 53 -24 87 -11 34 -17 65 -14 68 3 3
-1 5 -8 5 -7 0 -10 3 -7 6 3 4 1 16 -5 28 -7 11 -13 28 -14 36 -2 8 -7 23 -12
35 -5 11 -14 31 -20 45 -6 14 -24 55 -41 93 -17 37 -31 71 -31 76 0 5 -3 11
-7 13 -5 2 -23 33 -42 71 -19 37 -38 67 -43 67 -5 0 -6 5 -3 10 3 6 1 10 -4
10 -6 0 -11 5 -11 11 0 28 -171 265 -270 373 -50 56 -210 215 -210 210 0 -3
-16 10 -35 28 -19 18 -52 47 -75 63 -22 17 -49 37 -58 45 -9 9 -44 33 -77 55
-33 22 -62 42 -65 45 -3 3 -14 10 -25 16 -51 28 -70 39 -75 45 -9 10 -274 137
-340 162 -36 14 -96 35 -135 47 -38 13 -77 25 -85 28 -8 3 -22 6 -30 7 -8 2
-30 8 -47 13 -18 6 -33 8 -33 5 0 -3 -6 0 -13 6 -8 6 -17 8 -20 4 -4 -3 -12
-2 -19 4 -7 5 -20 9 -28 8 -8 -1 -25 2 -37 6 -12 5 -48 11 -80 14 -89 10 -108
13 -108 15 0 6 -392 19 -398 14z"/>
</g>
</svg>
